<svg width="556" height="150" viewBox="0 0 556 150" fill="none" xmlns="http://www.w3.org/2000/svg">
<path d="M248.541 61.4545C248.541 66.0909 246.905 70.1 243.632 73.4818C240.359 76.8091 235.586 79.2091 229.314 80.6818C232.695 81.6091 235.259 83.1364 237.005 85.2636C238.75 87.3364 239.623 89.7364 239.623 92.4636C239.623 96.7727 238.259 100.509 235.532 103.673C232.859 106.836 228.932 109.291 223.75 111.036C218.568 112.727 212.323 113.573 205.014 113.573C202.286 113.573 200.105 113.491 198.468 113.327C198.414 114.855 197.759 116 196.505 116.764C195.25 117.527 193.641 117.909 191.677 117.909C189.714 117.909 188.35 117.473 187.586 116.6C186.877 115.727 186.577 114.445 186.686 112.755C187.177 105.118 188.132 97.1273 189.55 88.7818C190.968 80.3818 192.768 72.2818 194.95 64.4818C195.332 63.1182 196.095 62.1636 197.241 61.6182C198.386 61.0727 199.886 60.8 201.741 60.8C205.068 60.8 206.732 61.7273 206.732 63.5818C206.732 64.3454 206.568 65.2182 206.241 66.2C204.823 70.4545 203.405 76.2364 201.986 83.5454C200.568 90.8 199.559 97.7273 198.959 104.327C201.577 104.545 203.705 104.655 205.341 104.655C212.977 104.655 218.568 103.564 222.114 101.382C225.714 99.1454 227.514 96.3091 227.514 92.8727C227.514 90.4727 226.477 88.4545 224.405 86.8182C222.386 85.1818 218.977 84.2818 214.177 84.1182C213.086 84.0636 212.323 83.7909 211.886 83.3C211.45 82.8091 211.232 82.0182 211.232 80.9273C211.232 79.3454 211.559 78.0636 212.214 77.0818C212.868 76.1 214.068 75.5818 215.814 75.5273C219.686 75.4182 223.177 74.8454 226.286 73.8091C229.45 72.7727 231.932 71.3273 233.732 69.4727C235.532 67.5636 236.432 65.3545 236.432 62.8454C236.432 59.6818 234.877 57.2 231.768 55.4C228.659 53.5454 223.886 52.6182 217.45 52.6182C211.614 52.6182 205.968 53.3818 200.514 54.9091C195.059 56.3818 190.423 58.2636 186.605 60.5545C184.859 61.5909 183.386 62.1091 182.186 62.1091C181.205 62.1091 180.441 61.7818 179.895 61.1273C179.405 60.4182 179.159 59.5454 179.159 58.5091C179.159 57.1454 179.432 55.9727 179.977 54.9909C180.577 54.0091 181.968 52.8909 184.15 51.6363C188.732 49.0182 194.105 46.9727 200.268 45.5C206.432 44.0273 212.732 43.2909 219.168 43.2909C229.041 43.2909 236.405 44.9545 241.259 48.2818C246.114 51.6091 248.541 56 248.541 61.4545ZM255.913 114.227C252.532 114.227 249.832 113 247.813 110.545C245.795 108.091 244.786 104.873 244.786 100.891C244.786 96.5273 245.795 92.4091 247.813 88.5364C249.832 84.6091 252.504 81.4727 255.832 79.1273C259.213 76.7273 262.786 75.5273 266.55 75.5273C267.75 75.5273 268.541 75.7727 268.923 76.2636C269.359 76.7 269.713 77.5182 269.986 78.7182C271.132 78.5 272.332 78.3909 273.586 78.3909C276.259 78.3909 277.595 79.3454 277.595 81.2545C277.595 82.4 277.186 85.1273 276.368 89.4364C275.113 95.7091 274.486 100.073 274.486 102.527C274.486 103.345 274.677 104 275.059 104.491C275.495 104.982 276.041 105.227 276.695 105.227C277.732 105.227 278.986 104.573 280.459 103.264C281.932 101.9 283.923 99.7182 286.432 96.7182C287.086 95.9545 287.823 95.5727 288.641 95.5727C289.35 95.5727 289.895 95.9 290.277 96.5545C290.713 97.2091 290.932 98.1091 290.932 99.2545C290.932 101.436 290.413 103.127 289.377 104.327C287.141 107.109 284.768 109.455 282.259 111.364C279.75 113.273 277.323 114.227 274.977 114.227C273.177 114.227 271.513 113.627 269.986 112.427C268.513 111.173 267.395 109.482 266.632 107.355C263.795 111.936 260.223 114.227 255.913 114.227ZM258.859 105.964C260.059 105.964 261.204 105.255 262.295 103.836C263.386 102.418 264.177 100.536 264.668 98.1909L267.695 83.1364C265.404 83.1909 263.277 84.0636 261.313 85.7545C259.404 87.3909 257.877 89.5727 256.732 92.3C255.586 95.0273 255.013 97.9182 255.013 100.973C255.013 102.664 255.341 103.918 255.995 104.736C256.704 105.555 257.659 105.964 258.859 105.964ZM320.773 95.5727C321.482 95.5727 322.027 95.9 322.409 96.5545C322.846 97.2091 323.064 98.1091 323.064 99.2545C323.064 101.436 322.546 103.127 321.509 104.327C319.164 107.218 316.6 109.591 313.818 111.445C311.037 113.3 307.846 114.227 304.246 114.227C293.118 114.227 287.555 106.4 287.555 90.7454C287.555 88.3454 287.637 85.9182 287.8 83.4636H284.609C282.973 83.4636 281.855 83.1636 281.255 82.5636C280.709 81.9636 280.437 81.0091 280.437 79.7C280.437 76.6454 281.664 75.1182 284.118 75.1182H288.782C289.709 69.1182 291.127 63.6364 293.037 58.6727C294.946 53.7091 297.237 49.7545 299.909 46.8091C302.637 43.8636 305.555 42.3909 308.664 42.3909C310.955 42.3909 312.755 43.4 314.064 45.4182C315.373 47.4363 316.027 49.9727 316.027 53.0273C316.027 61.4818 312.482 68.8454 305.391 75.1182H314.555C315.427 75.1182 316.055 75.3091 316.437 75.6909C316.818 76.0727 317.009 76.7818 317.009 77.8182C317.009 81.5818 313.927 83.4636 307.764 83.4636H297.782C297.673 86.1909 297.618 88.3182 297.618 89.8454C297.618 95.5182 298.273 99.5 299.582 101.791C300.946 104.082 303.073 105.227 305.964 105.227C308.309 105.227 310.382 104.518 312.182 103.1C313.982 101.682 316.109 99.5545 318.564 96.7182C319.218 95.9545 319.955 95.5727 320.773 95.5727ZM306.455 50.2454C305.637 50.2454 304.709 51.2818 303.673 53.3545C302.691 55.3727 301.737 58.2091 300.809 61.8636C299.937 65.4636 299.2 69.4727 298.6 73.8909C301.818 71.1091 304.218 68 305.8 64.5636C307.437 61.0727 308.255 57.9091 308.255 55.0727C308.255 51.8545 307.655 50.2454 306.455 50.2454ZM332.029 114.227C326.684 114.227 322.511 112.727 319.511 109.727C316.566 106.673 315.093 102.664 315.093 97.7C315.093 93.2818 315.966 89.4091 317.711 86.0818C319.457 82.7545 321.72 80.1909 324.502 78.3909C327.284 76.5909 330.202 75.6909 333.257 75.6909C336.257 75.6909 338.575 76.5909 340.211 78.3909C341.902 80.1364 342.748 82.4 342.748 85.1818C342.748 87.4727 342.229 89.4091 341.193 90.9909C340.211 92.5727 338.902 93.3636 337.266 93.3636C336.229 93.3636 335.384 93.1182 334.729 92.6273C334.129 92.1364 333.829 91.4545 333.829 90.5818C333.829 90.2 333.884 89.7636 333.993 89.2727C334.102 88.7818 334.184 88.4273 334.238 88.2091C334.511 87.3909 334.648 86.6273 334.648 85.9182C334.648 85.2091 334.457 84.6636 334.075 84.2818C333.748 83.9 333.257 83.7091 332.602 83.7091C331.348 83.7091 330.175 84.2818 329.084 85.4273C327.993 86.5182 327.12 88.0182 326.466 89.9273C325.811 91.8364 325.484 93.9364 325.484 96.2273C325.484 102.555 328.238 105.718 333.748 105.718C335.984 105.718 338.384 104.982 340.948 103.509C343.566 101.982 346.129 99.7182 348.638 96.7182C349.293 95.9545 350.029 95.5727 350.848 95.5727C351.557 95.5727 352.102 95.9 352.484 96.5545C352.92 97.2091 353.138 98.1091 353.138 99.2545C353.138 101.327 352.62 103.018 351.584 104.327C349.02 107.491 345.938 109.945 342.338 111.691C338.793 113.382 335.357 114.227 332.029 114.227ZM391.934 95.5727C392.643 95.5727 393.188 95.9 393.57 96.5545C394.006 97.2091 394.225 98.1091 394.225 99.2545C394.225 101.436 393.706 103.127 392.67 104.327C390.161 107.218 387.57 109.591 384.897 111.445C382.279 113.3 379.279 114.227 375.897 114.227C373.115 114.227 371.015 113.436 369.597 111.855C368.179 110.218 367.47 107.873 367.47 104.818C367.47 103.291 367.852 100.564 368.615 96.6364C369.325 93.2 369.679 90.8273 369.679 89.5182C369.679 88.6454 369.379 88.2091 368.779 88.2091C368.07 88.2091 367.061 89.1364 365.752 90.9909C364.443 92.7909 363.134 95.1909 361.825 98.1909C360.515 101.191 359.452 104.355 358.634 107.682C357.597 112.045 355.034 114.227 350.943 114.227C349.306 114.227 348.215 113.655 347.67 112.509C347.179 111.309 346.934 109.182 346.934 106.127C346.934 104.382 346.961 102.991 347.015 101.955L347.097 95.4091C347.097 87.0091 347.943 78.2545 349.634 69.1454C351.379 60.0363 353.915 52.4 357.243 46.2363C360.625 40.0182 364.661 36.9091 369.352 36.9091C371.861 36.9091 373.879 38 375.406 40.1818C376.988 42.3091 377.779 45.0909 377.779 48.5273C377.779 54.0363 376.17 59.7636 372.952 65.7091C369.734 71.6 364.497 78.5 357.243 86.4091C357.079 89.2454 356.997 92.1636 356.997 95.1636C358.797 90.5273 360.788 86.7636 362.97 83.8727C365.206 80.9273 367.388 78.8273 369.515 77.5727C371.697 76.3182 373.688 75.6909 375.488 75.6909C379.034 75.6909 380.806 77.4636 380.806 81.0091C380.806 83.1364 380.206 86.9818 379.006 92.5454C377.97 97.2909 377.452 100.427 377.452 101.955C377.452 104.136 378.243 105.227 379.825 105.227C380.915 105.227 382.197 104.573 383.67 103.264C385.197 101.9 387.215 99.7182 389.725 96.7182C390.379 95.9545 391.115 95.5727 391.934 95.5727ZM367.634 45.0091C366.652 45.0091 365.561 46.4273 364.361 49.2636C363.161 52.0454 361.988 55.8363 360.843 60.6363C359.752 65.3818 358.852 70.5636 358.143 76.1818C361.525 72.2 364.306 67.8636 366.488 63.1727C368.725 58.4818 369.843 54.2273 369.843 50.4091C369.843 48.6636 369.652 47.3273 369.27 46.4C368.888 45.4727 368.343 45.0091 367.634 45.0091ZM451.003 65.0545C451.003 69.6909 449.803 73.9454 447.403 77.8182C445.003 81.6909 441.512 84.8545 436.93 87.3091C432.348 89.7636 426.893 91.2091 420.566 91.6454L417.048 111.364C415.684 118.945 411.975 122.736 405.921 122.736C402.593 122.736 399.512 121.755 396.675 119.791C393.893 117.827 391.657 114.827 389.966 110.791C388.275 106.755 387.43 101.791 387.43 95.9C387.43 84.8273 389.203 75.4454 392.748 67.7545C396.348 60.0091 401.148 54.2273 407.148 50.4091C413.203 46.5363 419.857 44.6 427.112 44.6C432.239 44.6 436.575 45.5 440.121 47.3C443.721 49.1 446.421 51.5545 448.221 54.6636C450.075 57.7182 451.003 61.1818 451.003 65.0545ZM422.039 83.2182C433.221 81.8 438.812 75.9909 438.812 65.7909C438.812 62.1909 437.612 59.2727 435.212 57.0364C432.866 54.7454 429.212 53.6 424.248 53.6C418.63 53.6 413.721 55.3727 409.521 58.9182C405.375 62.4636 402.157 67.4 399.866 73.7273C397.63 80 396.512 87.1727 396.512 95.2454C396.512 98.6273 396.839 101.627 397.493 104.245C398.203 106.864 399.075 108.909 400.112 110.382C401.203 111.8 402.239 112.509 403.221 112.509C404.584 112.509 405.621 110.627 406.33 106.864L409.03 91.4C406.903 91.0727 405.975 90.9364 406.248 90.9909C404.612 90.7182 403.548 90.2273 403.057 89.5182C402.566 88.7545 402.321 87.8 402.321 86.6545C402.321 85.4545 402.648 84.5 403.303 83.7909C404.012 83.0818 404.966 82.7273 406.166 82.7273C406.712 82.7273 407.121 82.7545 407.393 82.8091C408.703 83.0273 409.712 83.1636 410.421 83.2182C411.13 78.9636 412.139 73.2636 413.448 66.1182C413.775 64.2636 414.512 62.9545 415.657 62.1909C416.857 61.3727 418.248 60.9636 419.83 60.9636C421.63 60.9636 422.912 61.3182 423.675 62.0273C424.493 62.6818 424.903 63.7454 424.903 65.2182C424.903 66.0909 424.848 66.8 424.739 67.3454L422.039 83.2182ZM456.544 114.227C453.162 114.227 450.462 113 448.444 110.545C446.426 108.091 445.417 104.873 445.417 100.891C445.417 96.5273 446.426 92.4091 448.444 88.5364C450.462 84.6091 453.135 81.4727 456.462 79.1273C459.844 76.7273 463.417 75.5273 467.18 75.5273C468.38 75.5273 469.171 75.7727 469.553 76.2636C469.989 76.7 470.344 77.5182 470.617 78.7182C471.762 78.5 472.962 78.3909 474.217 78.3909C476.889 78.3909 478.226 79.3454 478.226 81.2545C478.226 82.4 477.817 85.1273 476.998 89.4364C475.744 95.7091 475.117 100.073 475.117 102.527C475.117 103.345 475.307 104 475.689 104.491C476.126 104.982 476.671 105.227 477.326 105.227C478.362 105.227 479.617 104.573 481.089 103.264C482.562 101.9 484.553 99.7182 487.062 96.7182C487.717 95.9545 488.453 95.5727 489.271 95.5727C489.98 95.5727 490.526 95.9 490.907 96.5545C491.344 97.2091 491.562 98.1091 491.562 99.2545C491.562 101.436 491.044 103.127 490.007 104.327C487.771 107.109 485.398 109.455 482.889 111.364C480.38 113.273 477.953 114.227 475.607 114.227C473.807 114.227 472.144 113.627 470.617 112.427C469.144 111.173 468.026 109.482 467.262 107.355C464.426 111.936 460.853 114.227 456.544 114.227ZM459.489 105.964C460.689 105.964 461.835 105.255 462.926 103.836C464.017 102.418 464.807 100.536 465.298 98.1909L468.326 83.1364C466.035 83.1909 463.907 84.0636 461.944 85.7545C460.035 87.3909 458.507 89.5727 457.362 92.3C456.217 95.0273 455.644 97.9182 455.644 100.973C455.644 102.664 455.971 103.918 456.626 104.736C457.335 105.555 458.289 105.964 459.489 105.964ZM500.54 114.227C495.194 114.227 491.021 112.727 488.021 109.727C485.076 106.673 483.603 102.664 483.603 97.7C483.603 93.2818 484.476 89.4091 486.221 86.0818C487.967 82.7545 490.231 80.1909 493.012 78.3909C495.794 76.5909 498.712 75.6909 501.767 75.6909C504.767 75.6909 507.085 76.5909 508.721 78.3909C510.412 80.1364 511.258 82.4 511.258 85.1818C511.258 87.4727 510.74 89.4091 509.703 90.9909C508.721 92.5727 507.412 93.3636 505.776 93.3636C504.74 93.3636 503.894 93.1182 503.24 92.6273C502.64 92.1364 502.34 91.4545 502.34 90.5818C502.34 90.2 502.394 89.7636 502.503 89.2727C502.612 88.7818 502.694 88.4273 502.749 88.2091C503.021 87.3909 503.158 86.6273 503.158 85.9182C503.158 85.2091 502.967 84.6636 502.585 84.2818C502.258 83.9 501.767 83.7091 501.112 83.7091C499.858 83.7091 498.685 84.2818 497.594 85.4273C496.503 86.5182 495.631 88.0182 494.976 89.9273C494.321 91.8364 493.994 93.9364 493.994 96.2273C493.994 102.555 496.749 105.718 502.258 105.718C504.494 105.718 506.894 104.982 509.458 103.509C512.076 101.982 514.64 99.7182 517.149 96.7182C517.803 95.9545 518.54 95.5727 519.358 95.5727C520.067 95.5727 520.612 95.9 520.994 96.5545C521.431 97.2091 521.649 98.1091 521.649 99.2545C521.649 101.327 521.131 103.018 520.094 104.327C517.531 107.491 514.449 109.945 510.849 111.691C507.303 113.382 503.867 114.227 500.54 114.227ZM549.808 105.309C552.044 105.745 553.162 106.973 553.162 108.991C553.162 110.355 552.535 111.582 551.28 112.673C550.08 113.709 548.335 114.227 546.044 114.227C542.117 114.227 538.899 113.027 536.389 110.627C533.935 108.173 532.708 104.982 532.708 101.055C532.708 98.9273 533.799 97.4 535.98 96.4727C538.38 95.4364 540.099 94.3454 541.135 93.2C542.171 92 542.689 90.5545 542.689 88.8636C542.689 87.8818 542.471 87.1454 542.035 86.6545C541.653 86.1636 541.162 85.9182 540.562 85.9182C539.089 85.9182 537.453 86.9818 535.653 89.1091C533.908 91.2364 532.271 93.9909 530.744 97.3727C529.217 100.7 528.017 104.136 527.144 107.682C526.544 110.245 525.835 111.991 525.017 112.918C524.253 113.791 523.026 114.227 521.335 114.227C519.644 114.227 518.389 113.627 517.571 112.427C516.808 111.173 516.289 109.264 516.017 106.7C515.744 104.136 515.608 100.373 515.608 95.4091C515.608 87.0091 516.453 78.2545 518.144 69.1454C519.889 60.0363 522.426 52.4 525.753 46.2363C529.135 40.0182 533.171 36.9091 537.862 36.9091C540.371 36.9091 542.389 38 543.917 40.1818C545.499 42.3091 546.289 45.0909 546.289 48.5273C546.289 54.0363 544.68 59.7636 541.462 65.7091C538.244 71.6 533.008 78.5 525.753 86.4091C525.589 89.2454 525.508 92.1636 525.508 95.1636C528.126 88.3454 531.126 83.4091 534.508 80.3545C537.889 77.2454 541.053 75.6909 543.999 75.6909C546.726 75.6909 548.908 76.6182 550.544 78.4727C552.235 80.3273 553.08 82.6182 553.08 85.3454C553.08 88.3454 552.317 91.1 550.789 93.6091C549.262 96.1182 546.644 98.3545 542.935 100.318C543.262 101.955 543.917 103.1 544.899 103.755C545.935 104.355 547.571 104.873 549.808 105.309ZM536.144 45.0091C535.162 45.0091 534.071 46.4273 532.871 49.2636C531.671 52.0454 530.499 55.8363 529.353 60.6363C528.262 65.3818 527.362 70.5636 526.653 76.1818C530.035 72.2 532.817 67.8636 534.999 63.1727C537.235 58.4818 538.353 54.2273 538.353 50.4091C538.353 48.6636 538.162 47.3273 537.78 46.4C537.399 45.4727 536.853 45.0091 536.144 45.0091Z" fill="#404040"/>
<g clip-path="url(#clip0)">
<path d="M78.8437 86.8188L55.1875 76.925C53.7375 76.3313 52.0875 76.4875 50.7812 77.35C49.4688 78.2188 48.6875 79.6813 48.6875 81.25V117.188C48.6875 119.125 49.875 120.863 51.6812 121.556C52.2312 121.769 52.8062 121.875 53.375 121.875C54.6687 121.875 55.9375 121.338 56.8438 120.338L80.5062 94.2938C81.5312 93.1688 81.9437 91.6125 81.6125 90.125C81.2812 88.6438 80.25 87.4063 78.8437 86.8188V86.8188Z" fill="#2196F3"/>
<path d="M148.75 1.24998C147.438 0.0312294 145.538 -0.331271 143.863 0.318729L3.23752 55.0062C1.43127 55.7062 0.243775 57.45 0.250025 59.3937C0.256275 61.3375 1.45627 63.0687 3.26877 63.7562L114.206 105.944C114.744 106.144 115.313 106.25 115.875 106.25C116.581 106.25 117.288 106.094 117.938 105.775C119.106 105.2 119.981 104.175 120.363 102.937L150.05 6.06248C150.569 4.34373 150.069 2.47498 148.75 1.24998Z" fill="#64B5F6"/>
<path d="M48.6874 81.25L119 31.25L66.3936 89.5812L48.6874 81.25Z" fill="#2196F3"/>
<path d="M51.725 124.087C50.5437 124.087 49.3375 123.75 48.275 123.044C45.4 121.137 44.6125 117.256 46.525 114.381C48.2875 111.719 49.3062 109.775 49.375 109.637C50.9625 106.575 54.7125 105.375 57.7812 106.944C60.85 108.512 62.0625 112.275 60.5 115.344C60.5 115.344 59.2312 117.837 56.9437 121.287C55.7375 123.106 53.7562 124.087 51.725 124.087Z" fill="#2196F3"/>
<path d="M26.8124 142.187C22.9811 142.187 19.6874 141.737 16.7561 140.812C13.4624 139.775 11.6311 136.262 12.6686 132.975C13.7061 129.675 17.2249 127.856 20.5061 128.887C23.0874 129.7 26.8499 130.394 30.8999 128.925C34.1374 127.769 37.7249 129.425 38.9061 132.675C40.0811 135.919 38.4061 139.506 35.1561 140.681C32.3999 141.681 29.5874 142.187 26.8124 142.187Z" fill="#2196F3"/>
<path d="M6.68125 120.319C3.41875 120.319 0.66875 117.787 0.45 114.475C0.31875 112.394 0.25 110.175 0.25 107.812C0.25 104.356 3.04375 101.562 6.5 101.562C9.95625 101.562 12.75 104.356 12.75 107.812C12.75 109.881 12.8063 111.837 12.925 113.662C13.15 117.106 10.5375 120.081 7.09375 120.306C6.95625 120.312 6.825 120.319 6.68125 120.319Z" fill="#2196F3"/>
</g>
<defs>
<clipPath id="clip0">
<rect width="150" height="150" fill="white" transform="translate(0.25)"/>
</clipPath>
</defs>
</svg>
