<svg width="352" height="95" viewBox="0 0 352 95" fill="none" xmlns="http://www.w3.org/2000/svg">
<path d="M157.319 39.1545C157.319 42.0909 156.283 44.63 154.21 46.7718C152.137 48.8791 149.115 50.3991 145.142 51.3318C147.284 51.9191 148.907 52.8864 150.013 54.2336C151.118 55.5464 151.671 57.0664 151.671 58.7936C151.671 61.5227 150.807 63.8891 149.08 65.8927C147.387 67.8964 144.9 69.4509 141.618 70.5564C138.336 71.6273 134.381 72.1627 129.752 72.1627C128.025 72.1627 126.643 72.1109 125.606 72.0073C125.572 72.9745 125.157 73.7 124.363 74.1836C123.568 74.6673 122.549 74.9091 121.305 74.9091C120.062 74.9091 119.198 74.6327 118.715 74.08C118.265 73.5273 118.075 72.7154 118.145 71.6445C118.455 66.8082 119.06 61.7473 119.958 56.4618C120.856 51.1418 121.996 46.0118 123.378 41.0718C123.62 40.2082 124.104 39.6036 124.829 39.2582C125.555 38.9127 126.505 38.74 127.679 38.74C129.786 38.74 130.84 39.3273 130.84 40.5018C130.84 40.9854 130.736 41.5382 130.529 42.16C129.631 44.8545 128.733 48.5164 127.835 53.1454C126.936 57.74 126.297 62.1273 125.917 66.3073C127.575 66.4454 128.923 66.5145 129.959 66.5145C134.795 66.5145 138.336 65.8236 140.582 64.4418C142.862 63.0254 144.002 61.2291 144.002 59.0527C144.002 57.5327 143.345 56.2545 142.033 55.2182C140.755 54.1818 138.595 53.6118 135.555 53.5082C134.865 53.4736 134.381 53.3009 134.105 52.99C133.828 52.6791 133.69 52.1782 133.69 51.4873C133.69 50.4854 133.897 49.6736 134.312 49.0518C134.726 48.43 135.486 48.1018 136.592 48.0673C139.045 47.9982 141.255 47.6354 143.225 46.9791C145.228 46.3227 146.8 45.4073 147.94 44.2327C149.08 43.0236 149.65 41.6245 149.65 40.0354C149.65 38.0318 148.665 36.46 146.696 35.32C144.727 34.1454 141.705 33.5582 137.628 33.5582C133.932 33.5582 130.356 34.0418 126.902 35.0091C123.447 35.9418 120.511 37.1336 118.093 38.5845C116.987 39.2409 116.055 39.5691 115.295 39.5691C114.673 39.5691 114.189 39.3618 113.844 38.9473C113.533 38.4982 113.377 37.9454 113.377 37.2891C113.377 36.4254 113.55 35.6827 113.895 35.0609C114.275 34.4391 115.156 33.7309 116.538 32.9364C119.44 31.2782 122.843 29.9827 126.746 29.05C130.65 28.1173 134.64 27.6509 138.716 27.6509C144.969 27.6509 149.633 28.7045 152.707 30.8118C155.782 32.9191 157.319 35.7 157.319 39.1545ZM161.988 72.5773C159.847 72.5773 158.137 71.8 156.858 70.2454C155.58 68.6909 154.941 66.6527 154.941 64.1309C154.941 61.3673 155.58 58.7591 156.858 56.3064C158.137 53.8191 159.829 51.8327 161.937 50.3473C164.078 48.8273 166.341 48.0673 168.725 48.0673C169.485 48.0673 169.986 48.2227 170.228 48.5336C170.504 48.81 170.728 49.3282 170.901 50.0882C171.627 49.95 172.387 49.8809 173.181 49.8809C174.874 49.8809 175.72 50.4854 175.72 51.6945C175.72 52.42 175.461 54.1473 174.943 56.8764C174.148 60.8491 173.751 63.6127 173.751 65.1673C173.751 65.6854 173.872 66.1 174.114 66.4109C174.39 66.7218 174.736 66.8773 175.15 66.8773C175.807 66.8773 176.601 66.4627 177.534 65.6336C178.467 64.77 179.728 63.3882 181.317 61.4882C181.731 61.0045 182.198 60.7627 182.716 60.7627C183.165 60.7627 183.51 60.97 183.752 61.3845C184.028 61.7991 184.167 62.3691 184.167 63.0945C184.167 64.4764 183.838 65.5473 183.182 66.3073C181.766 68.0691 180.263 69.5545 178.674 70.7636C177.085 71.9727 175.548 72.5773 174.062 72.5773C172.922 72.5773 171.868 72.1973 170.901 71.4373C169.968 70.6427 169.26 69.5718 168.777 68.2245C166.98 71.1264 164.718 72.5773 161.988 72.5773ZM163.854 67.3436C164.614 67.3436 165.339 66.8945 166.03 65.9964C166.721 65.0982 167.222 63.9064 167.533 62.4209L169.45 52.8864C167.999 52.9209 166.652 53.4736 165.408 54.5445C164.199 55.5809 163.232 56.9627 162.507 58.69C161.781 60.4173 161.418 62.2482 161.418 64.1827C161.418 65.2536 161.626 66.0482 162.04 66.5664C162.489 67.0845 163.094 67.3436 163.854 67.3436ZM203.066 60.7627C203.515 60.7627 203.861 60.97 204.102 61.3845C204.379 61.7991 204.517 62.3691 204.517 63.0945C204.517 64.4764 204.189 65.5473 203.532 66.3073C202.047 68.1382 200.423 69.6409 198.662 70.8154C196.9 71.99 194.879 72.5773 192.599 72.5773C185.552 72.5773 182.028 67.62 182.028 57.7054C182.028 56.1854 182.08 54.6482 182.183 53.0936H180.162C179.126 53.0936 178.418 52.9036 178.038 52.5236C177.692 52.1436 177.52 51.5391 177.52 50.71C177.52 48.7754 178.297 47.8082 179.852 47.8082H182.805C183.392 44.0082 184.291 40.5364 185.5 37.3927C186.709 34.2491 188.16 31.7445 189.852 29.8791C191.58 28.0136 193.428 27.0809 195.397 27.0809C196.848 27.0809 197.988 27.72 198.817 28.9982C199.646 30.2764 200.061 31.8827 200.061 33.8173C200.061 39.1718 197.815 43.8354 193.324 47.8082H199.128C199.681 47.8082 200.078 47.9291 200.32 48.1709C200.562 48.4127 200.682 48.8618 200.682 49.5182C200.682 51.9018 198.731 53.0936 194.827 53.0936H188.505C188.436 54.8209 188.402 56.1682 188.402 57.1354C188.402 60.7282 188.816 63.25 189.645 64.7009C190.509 66.1518 191.856 66.8773 193.687 66.8773C195.172 66.8773 196.485 66.4282 197.625 65.53C198.765 64.6318 200.112 63.2845 201.667 61.4882C202.082 61.0045 202.548 60.7627 203.066 60.7627ZM193.998 32.0554C193.48 32.0554 192.892 32.7118 192.236 34.0245C191.614 35.3027 191.01 37.0991 190.422 39.4136C189.87 41.6936 189.403 44.2327 189.023 47.0309C191.062 45.2691 192.582 43.3 193.583 41.1236C194.62 38.9127 195.138 36.9091 195.138 35.1127C195.138 33.0745 194.758 32.0554 193.998 32.0554ZM210.195 72.5773C206.81 72.5773 204.167 71.6273 202.267 69.7273C200.401 67.7927 199.469 65.2536 199.469 62.11C199.469 59.3118 200.021 56.8591 201.127 54.7518C202.232 52.6445 203.666 51.0209 205.428 49.8809C207.19 48.7409 209.038 48.1709 210.972 48.1709C212.872 48.1709 214.341 48.7409 215.377 49.8809C216.448 50.9864 216.983 52.42 216.983 54.1818C216.983 55.6327 216.655 56.8591 215.999 57.8609C215.377 58.8627 214.548 59.3636 213.511 59.3636C212.855 59.3636 212.32 59.2082 211.905 58.8973C211.525 58.5864 211.335 58.1545 211.335 57.6018C211.335 57.36 211.37 57.0836 211.439 56.7727C211.508 56.4618 211.56 56.2373 211.594 56.0991C211.767 55.5809 211.853 55.0973 211.853 54.6482C211.853 54.1991 211.732 53.8536 211.491 53.6118C211.283 53.37 210.972 53.2491 210.558 53.2491C209.763 53.2491 209.021 53.6118 208.33 54.3373C207.639 55.0282 207.086 55.9782 206.671 57.1873C206.257 58.3964 206.05 59.7264 206.05 61.1773C206.05 65.1845 207.794 67.1882 211.283 67.1882C212.7 67.1882 214.22 66.7218 215.843 65.7891C217.501 64.8218 219.125 63.3882 220.714 61.4882C221.129 61.0045 221.595 60.7627 222.113 60.7627C222.562 60.7627 222.908 60.97 223.15 61.3845C223.426 61.7991 223.564 62.3691 223.564 63.0945C223.564 64.4073 223.236 65.4782 222.58 66.3073C220.956 68.3109 219.004 69.8654 216.724 70.9709C214.479 72.0418 212.302 72.5773 210.195 72.5773ZM248.135 60.7627C248.584 60.7627 248.929 60.97 249.171 61.3845C249.447 61.7991 249.585 62.3691 249.585 63.0945C249.585 64.4764 249.257 65.5473 248.601 66.3073C247.012 68.1382 245.371 69.6409 243.678 70.8154C242.02 71.99 240.12 72.5773 237.978 72.5773C236.216 72.5773 234.886 72.0764 233.988 71.0745C233.09 70.0382 232.641 68.5527 232.641 66.6182C232.641 65.6509 232.883 63.9236 233.366 61.4364C233.815 59.26 234.04 57.7573 234.04 56.9282C234.04 56.3754 233.85 56.0991 233.47 56.0991C233.021 56.0991 232.382 56.6864 231.553 57.8609C230.724 59.0009 229.895 60.5209 229.065 62.4209C228.236 64.3209 227.563 66.3245 227.045 68.4318C226.388 71.1954 224.765 72.5773 222.174 72.5773C221.137 72.5773 220.446 72.2145 220.101 71.4891C219.79 70.7291 219.635 69.3818 219.635 67.4473C219.635 66.3418 219.652 65.4609 219.686 64.8045L219.738 60.6591C219.738 55.3391 220.274 49.7945 221.345 44.0254C222.45 38.2564 224.056 33.42 226.164 29.5164C228.305 25.5782 230.862 23.6091 233.833 23.6091C235.422 23.6091 236.7 24.3 237.667 25.6818C238.669 27.0291 239.17 28.7909 239.17 30.9673C239.17 34.4564 238.151 38.0836 236.113 41.8491C234.075 45.58 230.758 49.95 226.164 54.9591C226.06 56.7554 226.008 58.6036 226.008 60.5036C227.148 57.5673 228.409 55.1836 229.791 53.3527C231.207 51.4873 232.589 50.1573 233.936 49.3627C235.318 48.5682 236.579 48.1709 237.719 48.1709C239.965 48.1709 241.087 49.2936 241.087 51.5391C241.087 52.8864 240.707 55.3218 239.947 58.8454C239.291 61.8509 238.963 63.8373 238.963 64.8045C238.963 66.1864 239.464 66.8773 240.465 66.8773C241.156 66.8773 241.968 66.4627 242.901 65.6336C243.868 64.77 245.146 63.3882 246.735 61.4882C247.15 61.0045 247.616 60.7627 248.135 60.7627ZM232.745 28.7391C232.123 28.7391 231.432 29.6373 230.672 31.4336C229.912 33.1954 229.169 35.5964 228.444 38.6364C227.753 41.6418 227.183 44.9236 226.734 48.4818C228.875 45.96 230.637 43.2136 232.019 40.2427C233.435 37.2718 234.144 34.5773 234.144 32.1591C234.144 31.0536 234.023 30.2073 233.781 29.62C233.539 29.0327 233.194 28.7391 232.745 28.7391ZM285.545 41.4345C285.545 44.3709 284.785 47.0654 283.265 49.5182C281.745 51.9709 279.534 53.9745 276.632 55.5291C273.73 57.0836 270.276 57.9991 266.268 58.2754L264.04 70.7636C263.177 75.5654 260.828 77.9664 256.993 77.9664C254.886 77.9664 252.934 77.3445 251.138 76.1009C249.376 74.8573 247.959 72.9573 246.888 70.4009C245.818 67.8445 245.282 64.7009 245.282 60.97C245.282 53.9573 246.405 48.0154 248.65 43.1445C250.93 38.2391 253.97 34.5773 257.77 32.1591C261.605 29.7064 265.819 28.48 270.414 28.48C273.661 28.48 276.408 29.05 278.653 30.19C280.933 31.33 282.643 32.8845 283.783 34.8536C284.958 36.7882 285.545 38.9818 285.545 41.4345ZM267.201 52.9382C274.283 52.04 277.824 48.3609 277.824 41.9009C277.824 39.6209 277.064 37.7727 275.544 36.3564C274.058 34.9054 271.744 34.18 268.6 34.18C265.042 34.18 261.933 35.3027 259.273 37.5482C256.648 39.7936 254.609 42.92 253.158 46.9273C251.742 50.9 251.034 55.4427 251.034 60.5554C251.034 62.6973 251.241 64.5973 251.656 66.2554C252.105 67.9136 252.658 69.2091 253.314 70.1418C254.005 71.04 254.661 71.4891 255.283 71.4891C256.147 71.4891 256.803 70.2973 257.252 67.9136L258.962 58.12C257.615 57.9127 257.028 57.8264 257.2 57.8609C256.164 57.6882 255.49 57.3773 255.179 56.9282C254.868 56.4445 254.713 55.84 254.713 55.1145C254.713 54.3545 254.92 53.75 255.335 53.3009C255.784 52.8518 256.388 52.6273 257.148 52.6273C257.494 52.6273 257.753 52.6445 257.926 52.6791C258.755 52.8173 259.394 52.9036 259.843 52.9382C260.292 50.2436 260.931 46.6336 261.76 42.1082C261.968 40.9336 262.434 40.1045 263.159 39.6209C263.919 39.1027 264.8 38.8436 265.802 38.8436C266.942 38.8436 267.754 39.0682 268.238 39.5173C268.756 39.9318 269.015 40.6054 269.015 41.5382C269.015 42.0909 268.98 42.54 268.911 42.8854L267.201 52.9382ZM289.054 72.5773C286.912 72.5773 285.202 71.8 283.924 70.2454C282.646 68.6909 282.007 66.6527 282.007 64.1309C282.007 61.3673 282.646 58.7591 283.924 56.3064C285.202 53.8191 286.895 51.8327 289.002 50.3473C291.144 48.8273 293.407 48.0673 295.791 48.0673C296.551 48.0673 297.052 48.2227 297.293 48.5336C297.57 48.81 297.794 49.3282 297.967 50.0882C298.692 49.95 299.452 49.8809 300.247 49.8809C301.94 49.8809 302.786 50.4854 302.786 51.6945C302.786 52.42 302.527 54.1473 302.009 56.8764C301.214 60.8491 300.817 63.6127 300.817 65.1673C300.817 65.6854 300.938 66.1 301.18 66.4109C301.456 66.7218 301.802 66.8773 302.216 66.8773C302.872 66.8773 303.667 66.4627 304.6 65.6336C305.532 64.77 306.793 63.3882 308.382 61.4882C308.797 61.0045 309.263 60.7627 309.782 60.7627C310.231 60.7627 310.576 60.97 310.818 61.3845C311.094 61.7991 311.232 62.3691 311.232 63.0945C311.232 64.4764 310.904 65.5473 310.248 66.3073C308.832 68.0691 307.329 69.5545 305.74 70.7636C304.151 71.9727 302.613 72.5773 301.128 72.5773C299.988 72.5773 298.934 72.1973 297.967 71.4373C297.034 70.6427 296.326 69.5718 295.842 68.2245C294.046 71.1264 291.783 72.5773 289.054 72.5773ZM290.92 67.3436C291.68 67.3436 292.405 66.8945 293.096 65.9964C293.787 65.0982 294.288 63.9064 294.599 62.4209L296.516 52.8864C295.065 52.9209 293.718 53.4736 292.474 54.5445C291.265 55.5809 290.298 56.9627 289.572 58.69C288.847 60.4173 288.484 62.2482 288.484 64.1827C288.484 65.2536 288.692 66.0482 289.106 66.5664C289.555 67.0845 290.16 67.3436 290.92 67.3436ZM316.918 72.5773C313.533 72.5773 310.89 71.6273 308.99 69.7273C307.125 67.7927 306.192 65.2536 306.192 62.11C306.192 59.3118 306.745 56.8591 307.85 54.7518C308.956 52.6445 310.389 51.0209 312.151 49.8809C313.913 48.7409 315.761 48.1709 317.696 48.1709C319.596 48.1709 321.064 48.7409 322.1 49.8809C323.171 50.9864 323.707 52.42 323.707 54.1818C323.707 55.6327 323.378 56.8591 322.722 57.8609C322.1 58.8627 321.271 59.3636 320.235 59.3636C319.578 59.3636 319.043 59.2082 318.628 58.8973C318.248 58.5864 318.058 58.1545 318.058 57.6018C318.058 57.36 318.093 57.0836 318.162 56.7727C318.231 56.4618 318.283 56.2373 318.317 56.0991C318.49 55.5809 318.577 55.0973 318.577 54.6482C318.577 54.1991 318.456 53.8536 318.214 53.6118C318.007 53.37 317.696 53.2491 317.281 53.2491C316.487 53.2491 315.744 53.6118 315.053 54.3373C314.362 55.0282 313.809 55.9782 313.395 57.1873C312.98 58.3964 312.773 59.7264 312.773 61.1773C312.773 65.1845 314.517 67.1882 318.007 67.1882C319.423 67.1882 320.943 66.7218 322.567 65.7891C324.225 64.8218 325.848 63.3882 327.437 61.4882C327.852 61.0045 328.318 60.7627 328.837 60.7627C329.286 60.7627 329.631 60.97 329.873 61.3845C330.149 61.7991 330.287 62.3691 330.287 63.0945C330.287 64.4073 329.959 65.4782 329.303 66.3073C327.679 68.3109 325.727 69.8654 323.447 70.9709C321.202 72.0418 319.026 72.5773 316.918 72.5773ZM348.121 66.9291C349.538 67.2054 350.246 67.9827 350.246 69.2609C350.246 70.1245 349.849 70.9018 349.054 71.5927C348.294 72.2491 347.189 72.5773 345.738 72.5773C343.25 72.5773 341.212 71.8173 339.623 70.2973C338.069 68.7427 337.291 66.7218 337.291 64.2345C337.291 62.8873 337.982 61.92 339.364 61.3327C340.884 60.6764 341.972 59.9854 342.629 59.26C343.285 58.5 343.613 57.5845 343.613 56.5136C343.613 55.8918 343.475 55.4254 343.199 55.1145C342.957 54.8036 342.646 54.6482 342.266 54.6482C341.333 54.6482 340.297 55.3218 339.157 56.6691C338.051 58.0164 337.015 59.7609 336.048 61.9027C335.08 64.01 334.32 66.1864 333.768 68.4318C333.388 70.0554 332.939 71.1609 332.42 71.7482C331.937 72.3009 331.16 72.5773 330.089 72.5773C329.018 72.5773 328.223 72.1973 327.705 71.4373C327.221 70.6427 326.893 69.4336 326.72 67.81C326.548 66.1864 326.461 63.8027 326.461 60.6591C326.461 55.3391 326.997 49.7945 328.068 44.0254C329.173 38.2564 330.78 33.42 332.887 29.5164C335.029 25.5782 337.585 23.6091 340.556 23.6091C342.145 23.6091 343.423 24.3 344.39 25.6818C345.392 27.0291 345.893 28.7909 345.893 30.9673C345.893 34.4564 344.874 38.0836 342.836 41.8491C340.798 45.58 337.481 49.95 332.887 54.9591C332.783 56.7554 332.731 58.6036 332.731 60.5036C334.39 56.1854 336.29 53.0591 338.431 51.1245C340.573 49.1554 342.577 48.1709 344.442 48.1709C346.17 48.1709 347.551 48.7582 348.588 49.9327C349.659 51.1073 350.194 52.5582 350.194 54.2854C350.194 56.1854 349.71 57.93 348.743 59.5191C347.776 61.1082 346.118 62.5245 343.769 63.7682C343.976 64.8045 344.39 65.53 345.012 65.9445C345.669 66.3245 346.705 66.6527 348.121 66.9291ZM339.468 28.7391C338.846 28.7391 338.155 29.6373 337.395 31.4336C336.635 33.1954 335.892 35.5964 335.167 38.6364C334.476 41.6418 333.906 44.9236 333.457 48.4818C335.599 45.96 337.36 43.2136 338.742 40.2427C340.159 37.2718 340.867 34.5773 340.867 32.1591C340.867 31.0536 340.746 30.2073 340.504 29.62C340.262 29.0327 339.917 28.7391 339.468 28.7391Z" fill="#404040"/>
<g clip-path="url(#clip0)">
<path d="M49.8443 54.9852L34.862 48.7192C33.9437 48.3431 32.8987 48.4421 32.0714 48.9883C31.2402 49.5385 30.7454 50.4648 30.7454 51.4583V74.2188C30.7454 75.4458 31.4974 76.5463 32.6414 76.9856C32.9897 77.1202 33.3539 77.1875 33.7141 77.1875C34.5335 77.1875 35.337 76.8471 35.911 76.2138L50.8972 59.7194C51.5464 59.0069 51.8076 58.0213 51.5979 57.0792C51.3881 56.141 50.7349 55.3573 49.8443 54.9852V54.9852Z" fill="#2196F3"/>
<path d="M94.1183 0.791799C93.287 0.0199241 92.0837 -0.209659 91.0228 0.202007L1.96034 34.8374C0.816378 35.2808 0.0642945 36.3851 0.0682529 37.6162C0.0722112 38.8472 0.832211 39.9437 1.98013 40.3791L72.2405 67.0978C72.581 67.2245 72.9412 67.2918 73.2974 67.2918C73.7447 67.2918 74.192 67.1928 74.6037 66.991C75.3439 66.6268 75.8981 65.9776 76.1395 65.1939L94.9416 3.83972C95.2701 2.75117 94.9535 1.56763 94.1183 0.791799Z" fill="#64B5F6"/>
<path d="M30.7452 51.4583L75.2765 19.7917L41.9592 56.7348L30.7452 51.4583Z" fill="#2196F3"/>
<path d="M32.669 78.5887C31.9209 78.5887 31.157 78.375 30.484 77.9277C28.6632 76.7204 28.1645 74.2622 29.3757 72.4414C30.492 70.7552 31.1372 69.5241 31.1807 69.437C32.1861 67.4974 34.5611 66.7374 36.5047 67.731C38.4482 68.7245 39.2161 71.1074 38.2265 73.051C38.2265 73.051 37.423 74.6304 35.9743 76.8154C35.2103 77.9672 33.9555 78.5887 32.669 78.5887Z" fill="#2196F3"/>
<path d="M16.8911 90.0521C14.4646 90.0521 12.3786 89.7671 10.5221 89.1812C8.4361 88.5242 7.27631 86.2996 7.93339 84.2175C8.59047 82.1275 10.819 80.9756 12.8971 81.6287C14.5319 82.1433 16.9148 82.5827 19.4798 81.6525C21.5303 80.9202 23.8023 81.9691 24.5505 84.0275C25.2946 86.0819 24.2338 88.3539 22.1755 89.0981C20.4298 89.7314 18.6486 90.0521 16.8911 90.0521Z" fill="#2196F3"/>
<path d="M4.14136 76.2019C2.07511 76.2019 0.333446 74.5987 0.194904 72.5008C0.111779 71.1827 0.0682373 69.7775 0.0682373 68.2812C0.0682373 66.0923 1.83761 64.3229 4.02657 64.3229C6.21553 64.3229 7.9849 66.0923 7.9849 68.2812C7.9849 69.5914 8.02053 70.8304 8.09574 71.9862C8.23824 74.1673 6.58365 76.0514 4.40261 76.1939C4.31553 76.1979 4.2324 76.2019 4.14136 76.2019Z" fill="#2196F3"/>
</g>
<defs>
<clipPath id="clip0">
<rect width="95" height="95" fill="white" transform="translate(0.0682373)"/>
</clipPath>
</defs>
</svg>
